<?xml version="1.0" encoding="UTF-8" standalone="no"?>
<!-- Created with Inkscape (http://www.inkscape.org/) -->

<svg
   width="79.712799mm"
   height="72.873932mm"
   viewBox="0 0 79.712799 72.873932"
   version="1.1"
   id="svg1"
   xmlns="http://www.w3.org/2000/svg"
   xmlns:svg="http://www.w3.org/2000/svg">
  <defs
     id="defs1" />
  <g
     id="layer1"
     transform="translate(-64.619134,-109.82012)">
    <path
       fill="#1165b3"
       opacity="1"
       stroke="none"
       d="m 121.17902,172.11663 c -6.06709,11.45065 -20.71781,14.15698 -30.263131,5.38781 -2.111758,-1.94005 -3.453701,-4.71806 -5.16369,-7.30484 -0.162597,-0.74316 -0.278278,-1.3034 -0.466146,-1.83829 -1.060614,-3.01966 -1.033219,-6.11135 -0.491918,-9.19716 0.532259,-3.03426 2.048925,-5.66867 3.670649,-8.24157 2.617853,-4.15328 5.215908,-8.31904 7.827306,-12.4764 2.376636,-3.78363 4.75991,-7.56308 7.22009,-11.30157 0.80107,1.18615 1.52782,2.32607 2.24256,3.47347 2.40945,3.86798 4.81676,7.73729 7.22071,11.6087 1.64166,2.64377 3.32074,5.26567 4.90195,7.94523 1.65903,2.81144 3.68015,5.43708 4.40743,8.73678 0.75603,3.43015 0.88634,6.81542 -0.25824,10.19109 -0.33493,0.98781 -0.56788,2.0102 -0.84757,3.01675 z"
       id="path2"
       style="stroke-width:0.264583" />
    <path
       fill="#4178c2"
       opacity="1"
       stroke="none"
       d="m 121.26017,172.07579 c 0.19854,-0.96571 0.43149,-1.9881 0.76642,-2.97591 1.14458,-3.37567 1.01427,-6.76094 0.25824,-10.19109 -0.72728,-3.2997 -2.7484,-5.92534 -4.40743,-8.73678 -1.58121,-2.67956 -3.26029,-5.30146 -4.90195,-7.94523 -2.40395,-3.87141 -4.81126,-7.74072 -7.22071,-11.6087 -0.71474,-1.1474 -1.44149,-2.28732 -2.21429,-3.54102 0.0105,-0.24106 0.0724,-0.37176 0.13443,-0.50247 2.13604,-3.32847 3.9075,-6.97459 6.4778,-9.92472 7.1639,-8.22259 18.49606,-9.10561 26.98581,-2.18702 6.21345,5.06356 8.29938,11.74358 6.65286,19.61065 -0.61159,2.92214 -2.1632,5.35787 -3.69567,7.82161 -6.24972,10.04769 -12.50262,20.0934 -18.83551,30.18068 z"
       id="path3"
       style="stroke-width:0.264583" />
    <path
       fill="#41b2c5"
       opacity="1"
       stroke="none"
       d="m 103.58404,126.56488 c 0.0288,0.14042 -0.0331,0.27112 -0.12342,0.46938 -2.40862,3.84884 -4.791894,7.62829 -7.16853,11.41192 -2.611398,4.15736 -5.209453,8.32312 -7.827306,12.4764 -1.621724,2.5729 -3.13839,5.20731 -3.670649,8.24157 -0.541301,3.08581 -0.568696,6.1775 0.491918,9.19716 0.187868,0.53489 0.303549,1.09513 0.445921,1.74919 -1.825741,-2.74511 -3.674654,-5.57724 -5.457958,-8.4501 -4.203502,-6.77175 -8.351148,-13.57823 -12.568161,-20.34151 -3.559589,-5.70889 -4.0536,-11.75242 -1.414003,-17.81006 4.053681,-9.30286 14.863003,-14.2439 24.983196,-9.91953 4.195056,1.79255 7.173581,4.82848 9.402232,8.73423 0.83773,1.46813 1.87151,2.82439 2.90676,4.24135 z"
       id="path4"
       style="stroke-width:0.264583" />
  </g>
</svg>
